<?xml version="1.0" encoding="UTF-8"?>
<!-- Generator: Adobe Illustrator 15.1.0, SVG Export Plug-In . SVG Version: 6.00 Build 0)  -->
<!DOCTYPE svg PUBLIC "-//W3C//DTD SVG 1.0//EN" "http://www.w3.org/TR/2001/REC-SVG-20010904/DTD/svg10.dtd">
<svg version="1.0" id="svg4375" inkscape:export-filename="music.png" xmlns:cc="http://creativecommons.org/ns#" xmlns:svg="http://www.w3.org/2000/svg" xmlns:rdf="http://www.w3.org/1999/02/22-rdf-syntax-ns#" xmlns:dc="http://purl.org/dc/elements/1.1/" xmlns:sodipodi="http://sodipodi.sourceforge.net/DTD/sodipodi-0.dtd" xmlns:inkscape="http://www.inkscape.org/namespaces/inkscape" inkscape:export-ydpi="90" sodipodi:docname="music.svg" inkscape:export-xdpi="90" inkscape:version="0.48.3.1 r9886" xmlns="http://www.w3.org/2000/svg" xmlns:xlink="http://www.w3.org/1999/xlink" x="0px" y="0px" width="32px" height="32px" viewBox="0 0 32 32" style="enable-background:new 0 0 32 32;" xml:space="preserve">
<sodipodi:namedview id="base" borderopacity="1.0" fit-margin-left="0" fit-margin-top="0" showgrid="false" inkscape:zoom="11.2" inkscape:cy="12.572189" inkscape:cx="7.9636746" bordercolor="#666666" inkscape:window-maximized="1" pagecolor="#ffffff" inkscape:pageopacity="0.0" inkscape:current-layer="layer1" inkscape:window-width="1280" inkscape:window-height="745" inkscape:document-units="px" inkscape:pageshadow="2" inkscape:window-x="0" inkscape:window-y="27" fit-margin-right="0" fit-margin-bottom="0">
	</sodipodi:namedview>
<g>
	<path d="M28.322,1H3.51C2.612,1,1.885,1.728,1.885,2.625v25.689c0,0.896,0.728,1.625,1.625,1.625h24.813   c0.896,0,1.625-0.729,1.625-1.625V2.625C29.947,1.728,29.219,1,28.322,1z M24.834,3.283c0-0.2,0.16-0.361,0.361-0.361h1.082   c0.199,0,0.361,0.162,0.361,0.361v1.083c0,0.199-0.162,0.361-0.361,0.361h-1.082c-0.201,0-0.361-0.162-0.361-0.361V3.283z    M19.92,3.283c0-0.2,0.16-0.361,0.361-0.361h1.082c0.199,0,0.361,0.162,0.361,0.361v1.083c0,0.199-0.162,0.361-0.361,0.361h-1.082   c-0.201,0-0.361-0.162-0.361-0.361V3.283z M15.006,3.283c0-0.2,0.161-0.361,0.36-0.361h1.084c0.198,0,0.36,0.162,0.36,0.361v1.083   c0,0.199-0.162,0.361-0.36,0.361h-1.084c-0.199,0-0.36-0.162-0.36-0.361V3.283z M10.091,3.283c0-0.2,0.162-0.361,0.361-0.361h1.083   c0.2,0,0.361,0.162,0.361,0.361v1.083c0,0.199-0.161,0.361-0.361,0.361h-1.083c-0.199,0-0.361-0.162-0.361-0.361V3.283z    M5.177,3.283c0-0.2,0.162-0.361,0.361-0.361h1.083c0.199,0,0.361,0.162,0.361,0.361v1.083c0,0.199-0.162,0.361-0.361,0.361H5.538   c-0.199,0-0.361-0.162-0.361-0.361V3.283z M6.982,27.801c0,0.199-0.162,0.361-0.361,0.361H5.538c-0.199,0-0.361-0.162-0.361-0.361   v-1.084c0-0.199,0.162-0.359,0.361-0.359h1.083c0.199,0,0.361,0.16,0.361,0.359V27.801z M11.896,27.801   c0,0.199-0.161,0.361-0.361,0.361h-1.083c-0.199,0-0.361-0.162-0.361-0.361v-1.084c0-0.199,0.162-0.359,0.361-0.359h1.083   c0.2,0,0.361,0.16,0.361,0.359V27.801z M16.811,27.801c0,0.199-0.162,0.361-0.36,0.361h-1.084c-0.199,0-0.36-0.162-0.36-0.361   v-1.084c0-0.199,0.161-0.359,0.36-0.359h1.084c0.198,0,0.36,0.16,0.36,0.359V27.801z M21.725,27.801   c0,0.199-0.162,0.361-0.361,0.361h-1.082c-0.201,0-0.361-0.162-0.361-0.361v-1.084c0-0.199,0.16-0.359,0.361-0.359h1.082   c0.199,0,0.361,0.16,0.361,0.359V27.801z M26.639,27.801c0,0.199-0.162,0.361-0.361,0.361h-1.082c-0.201,0-0.361-0.162-0.361-0.361   v-1.084c0-0.199,0.16-0.359,0.361-0.359h1.082c0.199,0,0.361,0.16,0.361,0.359V27.801z M27.949,22.76   c0,0.898-0.729,1.625-1.625,1.625H5.507c-0.897,0-1.625-0.727-1.625-1.625V8.179c0-0.898,0.728-1.625,1.625-1.625h20.817   c0.896,0,1.625,0.728,1.625,1.625V22.76z"/>
	<polygon points="11.218,8.941 11.218,21.705 22.033,15.372  "/>
</g>
<g>
	<path style="fill:#FFFFFF;" d="M28.322,1.613H3.51c-0.897,0-1.625,0.728-1.625,1.625v25.69c0,0.896,0.728,1.625,1.625,1.625h24.813   c0.897,0,1.625-0.729,1.625-1.625V3.238C29.947,2.34,29.22,1.613,28.322,1.613z M24.834,3.896c0-0.2,0.161-0.361,0.361-0.361h1.083   c0.199,0,0.361,0.162,0.361,0.361v1.083c0,0.199-0.162,0.361-0.361,0.361h-1.083c-0.2,0-0.361-0.162-0.361-0.361V3.896z    M19.92,3.896c0-0.2,0.161-0.361,0.361-0.361h1.083c0.199,0,0.361,0.162,0.361,0.361v1.083c0,0.199-0.162,0.361-0.361,0.361h-1.083   c-0.2,0-0.361-0.162-0.361-0.361V3.896z M15.006,3.896c0-0.2,0.161-0.361,0.36-0.361h1.084c0.199,0,0.36,0.162,0.36,0.361v1.083   c0,0.199-0.161,0.361-0.36,0.361h-1.084c-0.199,0-0.36-0.162-0.36-0.361V3.896z M10.091,3.896c0-0.2,0.162-0.361,0.361-0.361h1.083   c0.2,0,0.361,0.162,0.361,0.361v1.083c0,0.199-0.161,0.361-0.361,0.361h-1.083c-0.199,0-0.361-0.162-0.361-0.361V3.896z    M5.177,3.896c0-0.2,0.162-0.361,0.361-0.361h1.083c0.199,0,0.361,0.162,0.361,0.361v1.083c0,0.199-0.162,0.361-0.361,0.361H5.538   c-0.199,0-0.361-0.162-0.361-0.361V3.896z M6.982,28.414c0,0.199-0.162,0.361-0.361,0.361H5.538c-0.199,0-0.361-0.162-0.361-0.361   V27.33c0-0.199,0.162-0.359,0.361-0.359h1.083c0.199,0,0.361,0.16,0.361,0.359V28.414z M11.896,28.414   c0,0.199-0.161,0.361-0.361,0.361h-1.083c-0.199,0-0.361-0.162-0.361-0.361V27.33c0-0.199,0.162-0.359,0.361-0.359h1.083   c0.2,0,0.361,0.16,0.361,0.359V28.414z M16.811,28.414c0,0.199-0.161,0.361-0.36,0.361h-1.084c-0.199,0-0.36-0.162-0.36-0.361   V27.33c0-0.199,0.161-0.359,0.36-0.359h1.084c0.199,0,0.36,0.16,0.36,0.359V28.414z M21.726,28.414   c0,0.199-0.162,0.361-0.361,0.361h-1.083c-0.2,0-0.361-0.162-0.361-0.361V27.33c0-0.199,0.161-0.359,0.361-0.359h1.083   c0.199,0,0.361,0.16,0.361,0.359V28.414z M26.64,28.414c0,0.199-0.162,0.361-0.361,0.361h-1.083c-0.2,0-0.361-0.162-0.361-0.361   V27.33c0-0.199,0.161-0.359,0.361-0.359h1.083c0.199,0,0.361,0.16,0.361,0.359V28.414z M27.95,23.373   c0,0.898-0.729,1.625-1.626,1.625H5.507c-0.897,0-1.625-0.727-1.625-1.625V8.792c0-0.898,0.728-1.625,1.625-1.625h20.817   c0.897,0,1.626,0.728,1.626,1.625V23.373z"/>
	<polygon style="fill:#FFFFFF;" points="11.218,9.554 11.218,22.318 22.034,15.985  "/>
</g>
</svg>